<?xml version="1.0" encoding="utf-8"?>
<!-- Generator: Adobe Illustrator 21.0.2, SVG Export Plug-In . SVG Version: 6.00 Build 0)  -->
<svg version="1.1" id="Layer_1" xmlns="http://www.w3.org/2000/svg" xmlns:xlink="http://www.w3.org/1999/xlink" x="0px" y="0px"
	 width="639.807px" height="128.148px" viewBox="0 0 639.807 128.148" style="enable-background:new 0 0 639.807 128.148;"
	 xml:space="preserve">
<style type="text/css">
	.st0{clip-path:url(#SVGID_2_);}
	.st1{fill:#84CCE0;}
	.st2{fill:url(#SVGID_3_);}
	.st3{fill:#FFFFFF;}
	.st4{fill:#36589F;}
	.st5{fill:#E6362C;}
	.st6{fill:#ECC625;}
	.st7{fill:#418533;}
	.st8{fill:#1E1E1C;}
	.st9{clip-path:url(#SVGID_5_);}
	.st10{fill:#BC9635;}
	.st11{clip-path:url(#SVGID_7_);fill:url(#SVGID_8_);}
	.st12{fill:#646463;}
</style>
<g>
	<g>
		<defs>
			<path id="SVGID_1_" d="M128.224,63.96c0,35.291-28.608,63.896-63.898,63.896c-35.291,0-63.898-28.605-63.898-63.896
				s28.607-63.9,63.898-63.9C99.616,0.06,128.224,28.669,128.224,63.96L128.224,63.96z"/>
		</defs>
		<clipPath id="SVGID_2_">
			<use xlink:href="#SVGID_1_"  style="overflow:visible;"/>
		</clipPath>
		<g class="st0">
			<g>
				<rect class="st1" width="128.148" height="128.148"/>
				<radialGradient id="SVGID_3_" cx="64.074" cy="64.074" r="63.8571" gradientUnits="userSpaceOnUse">
					<stop  offset="0.47" style="stop-color:#3659A2"/>
					<stop  offset="0.5859" style="stop-color:#355EA5;stop-opacity:0.7813"/>
					<stop  offset="0.7592" style="stop-color:#316AB0;stop-opacity:0.4544"/>
					<stop  offset="0.9675" style="stop-color:#287EC2;stop-opacity:0.0614"/>
					<stop  offset="1" style="stop-color:#2782C5;stop-opacity:0"/>
				</radialGradient>
				<circle class="st2" cx="64.074" cy="64.074" r="63.857"/>
			</g>
		</g>
	</g>
	<path class="st3" d="M117.574,63.96c0,29.408-23.842,53.25-53.248,53.25c-29.41,0-53.248-23.842-53.248-53.25
		s23.838-53.25,53.248-53.25C93.732,10.71,117.574,34.552,117.574,63.96L117.574,63.96z"/>
	<path class="st1" d="M107.989,63.96c0,24.113-19.55,43.664-43.663,43.664c-24.115,0-43.666-19.551-43.666-43.664
		c0-24.115,19.551-43.664,43.666-43.664C88.439,20.296,107.989,39.845,107.989,63.96L107.989,63.96z"/>
	<path class="st4" d="M64.293,30.757c-20.626,0.197-28.795,16.693-28.817,16.658c-2.495-3.365-2.707-5.062-2.882-6.553
		c-0.175-1.492,0.588-5.119,2.022-7.738c1.346-2.461,3.617-4.383,8.038-7.172c4.091-2.584,12.408-5.649,21.639-5.697
		c9.229-0.051,17.548,3.113,21.64,5.697c4.418,2.789,6.691,4.711,8.037,7.172c1.436,2.619,2.195,6.246,2.021,7.738
		c-0.174,1.49-0.387,3.188-2.881,6.553C93.086,47.451,84.918,30.954,64.293,30.757"/>
	<path class="st5" d="M35.597,80.538C46.08,98.302,64.45,97.13,64.433,97.165c-1.668,3.844-3.029,4.875-4.236,5.773
		c-1.202,0.896-4.725,2.049-7.713,2.115c-2.8,0.068-5.603-0.939-10.229-3.375c-4.282-2.25-11.097-7.918-15.754-15.891
		c-4.659-7.969-6.076-16.754-5.885-21.588c0.205-5.221,0.734-8.15,2.191-10.547c1.553-2.553,4.312-5.025,5.691-5.619
		c1.378-0.596,2.955-1.26,7.116-0.783C35.656,47.257,25.455,62.579,35.597,80.538"/>
	<path class="st6" d="M93.058,80.501c10.143-17.963-0.059-33.285-0.02-33.287c4.162-0.479,5.737,0.184,7.117,0.781
		c1.379,0.592,4.139,3.068,5.691,5.619c1.455,2.394,1.984,5.324,2.191,10.547c0.191,4.834-1.312,13.57-5.885,21.59
		c-4.572,8.018-11.472,13.641-15.754,15.891c-4.627,2.434-7.429,3.439-10.23,3.375c-2.986-0.068-6.509-1.223-7.713-2.119
		c-1.205-0.896-2.566-1.93-4.236-5.771C64.205,97.089,82.576,98.263,93.058,80.501"/>
	<path class="st7" d="M97.509,63.96c0,18.328-14.857,33.184-33.184,33.184c-18.327,0-33.185-14.855-33.185-33.184
		s14.857-33.186,33.185-33.186C82.652,30.775,97.509,45.632,97.509,63.96L97.509,63.96z"/>
	<path class="st8" d="M91.187,57.558L78.66,48.785l-3.273,4.676l6.984,4.893l-1.293,1.848l-4.329-3.031l-7.721,11.027
		c0,0-1.23,1.789-0.451,3.469c0,0,3.214,4.312,3.807,5.686c0.594,1.377,1.714,3.926,2.985,9.223c0.06,0.25,0.099,0.562,0.339,0.627
		c0.239,0.064,2.262,0.027,2.37-0.053c0.107-0.078,0.318-0.27,0.421-0.639c0.103-0.369,0.856-3.705-0.167-8.908
		c-0.117-0.574-0.754-3.146-3.016-6.027c-0.116-0.131-0.453-0.469-0.47-0.588c-0.017,0.023,0.022-0.076,0.022-0.076l3.882-5.543
		l4.676,3.275L91.187,57.558L91.187,57.558z M73.591,52.464l3.394-4.852L60.361,35.972L40.432,64.431L61.33,79.066l-1.295,1.846
		L35.732,63.896l3.249,10.104l22.572,15.803l8.165-11.66l-6.696-4.688l12.128-17.32l-12.528-8.771l-10.671,15.24l7.619,5.336
		l-1.374,1.963l-9.178-6.428l13.259-18.936L73.591,52.464L73.591,52.464z M60.686,61.062l3.517-5.021l2.482,1.738L63.167,62.8
		L60.686,61.062L60.686,61.062z"/>
	<g>
		<defs>
			<path id="SVGID_4_" d="M91.187,57.558L78.66,48.785l-3.273,4.676l6.984,4.893l-1.293,1.848l-4.329-3.031l-7.721,11.027
				c0,0-1.23,1.789-0.451,3.469c0,0,3.214,4.312,3.807,5.686c0.594,1.377,1.714,3.926,2.985,9.223
				c0.06,0.25,0.099,0.562,0.339,0.627c0.239,0.064,2.262,0.027,2.37-0.053c0.107-0.078,0.318-0.27,0.421-0.639
				c0.103-0.369,0.856-3.705-0.167-8.908c-0.117-0.574-0.754-3.146-3.016-6.027c-0.116-0.131-0.453-0.469-0.47-0.588
				c-0.017,0.023,0.022-0.076,0.022-0.076l3.882-5.543l4.676,3.275L91.187,57.558L91.187,57.558z M73.591,52.464l3.394-4.852
				L60.361,35.972L40.432,64.431L61.33,79.066l-1.295,1.846L35.732,63.896l3.249,10.104l22.572,15.803l8.165-11.66l-6.696-4.688
				l12.128-17.32l-12.528-8.771l-10.671,15.24l7.619,5.336l-1.374,1.963l-9.178-6.428l13.259-18.936L73.591,52.464L73.591,52.464z
				 M60.686,61.062l3.517-5.021l2.482,1.738L63.167,62.8L60.686,61.062L60.686,61.062z"/>
		</defs>
		<clipPath id="SVGID_5_">
			<use xlink:href="#SVGID_4_"  style="overflow:visible;"/>
		</clipPath>
		<g class="st9">
			<rect x="35.359" y="35.725" class="st10" width="55.832" height="55.832"/>
			<g>
				<defs>
					<rect id="SVGID_6_" x="35.359" y="35.725" width="55.832" height="55.832"/>
				</defs>
				<clipPath id="SVGID_7_">
					<use xlink:href="#SVGID_6_"  style="overflow:visible;"/>
				</clipPath>
				<radialGradient id="SVGID_8_" cx="56.1415" cy="53.227" r="33.4589" gradientUnits="userSpaceOnUse">
					<stop  offset="0" style="stop-color:#FFFFFF"/>
					<stop  offset="1" style="stop-color:#FFFFFF;stop-opacity:0"/>
				</radialGradient>
				<circle class="st11" cx="56.141" cy="53.227" r="33.459"/>
			</g>
		</g>
	</g>
	<path class="st12" d="M637.083,91.607v-0.885h-8.357v-5.211h7.432v-0.889h-7.432v-5.098h8.264v-0.887h-9.227v12.969H637.083
		L637.083,91.607z M623.417,82.4c0,1.871-1.613,2.965-3.784,2.965h-4.374v-5.84h4.43c2.355,0,3.729,1.096,3.729,2.836V82.4
		L623.417,82.4z M624.859,91.607l-4.279-5.539c2.188-0.297,3.797-1.539,3.797-3.707v-0.035c0-2.17-1.831-3.688-4.632-3.688h-5.446
		v12.969h0.961v-5.375h4.245l4.134,5.375H624.859L624.859,91.607z M610.405,86.105v-7.467h-0.958v7.578
		c0,3.133-1.69,4.729-4.321,4.729c-2.742,0-4.394-1.76-4.394-4.818v-7.488h-0.961v7.578c0,3.633,2.203,5.596,5.318,5.596
		C608.24,91.812,610.405,89.831,610.405,86.105 M597.075,79.525v-0.887h-10.002v0.887h4.518v12.082h0.963V79.525H597.075
		L597.075,79.525z M587.036,91.607v-0.885h-7.616V78.638h-0.961v12.969H587.036L587.036,91.607z M574.566,86.105v-7.467h-0.963
		v7.578c0,3.133-1.685,4.729-4.318,4.729c-2.743,0-4.391-1.76-4.391-4.818v-7.488h-0.96v7.578c0,3.633,2.2,5.596,5.314,5.596
		C572.4,91.812,574.566,89.831,574.566,86.105 M561.414,89.574l-0.649-0.633c-1.315,1.299-2.596,2.021-4.465,2.021
		c-3.097,0-5.487-2.561-5.487-5.838v-0.039c0-3.264,2.353-5.803,5.467-5.803c1.947,0,3.244,0.817,4.374,1.91l0.686-0.703
		c-1.333-1.225-2.725-2.074-5.039-2.074c-3.744,0-6.486,3.037-6.486,6.709v0.035c0,3.727,2.742,6.67,6.448,6.67
		C558.558,91.829,560.04,90.925,561.414,89.574 M540.97,91.607V78.638h-0.925v11.285l-8.952-11.285h-0.906v12.969h0.924V80.081
		l9.14,11.525H540.97L540.97,91.607z M524.361,87.105h-6.838l3.43-7.506L524.361,87.105L524.361,87.105z M527.476,91.607
		l-6.04-13.061h-0.929l-6.043,13.061h1.002l1.648-3.633h7.655l1.651,3.633H527.476L527.476,91.607z M514.507,79.525v-0.887h-10.005
		v0.887h4.522v12.082h0.959V79.525H514.507L514.507,79.525z M502.129,91.607v-0.885h-8.356v-5.211h7.432v-0.889h-7.432v-5.098h8.264
		v-0.887h-9.224v12.969H502.129L502.129,91.607z M488.541,88.072c0,1.629-1.409,2.65-3.634,2.65h-4.707v-5.211h4.393
		c2.56,0,3.948,0.928,3.948,2.521V88.072L488.541,88.072z M487.818,81.954c0,1.723-1.389,2.668-3.336,2.668h-4.281v-5.098h4.374
		c2.075,0,3.243,0.965,3.243,2.391V81.954L487.818,81.954z M489.523,88.072v-0.039c0-1.799-1.371-2.689-2.928-3.094
		c1.059-0.428,2.204-1.314,2.204-3.078v-0.035c0-1.949-1.685-3.188-4.206-3.188h-5.353v12.969h5.634
		C487.669,91.607,489.523,90.24,489.523,88.072 M475.169,78.638h-0.963v12.967h0.963V78.638L475.169,78.638z M471.343,79.525v-0.887
		h-10.007v0.887h4.523v12.082h0.961V79.525H471.343L471.343,79.525z M452.424,82.4c0,1.871-1.611,2.965-3.78,2.965h-4.376v-5.84
		h4.43c2.355,0,3.727,1.096,3.727,2.836V82.4L452.424,82.4z M453.869,91.607l-4.281-5.539c2.19-0.297,3.798-1.539,3.798-3.707
		v-0.035c0-2.17-1.831-3.688-4.632-3.688h-5.446v12.969h0.961v-5.375h4.248l4.131,5.375H453.869L453.869,91.607z M438.945,85.16
		c0,3.207-2.299,5.803-5.505,5.803c-3.206,0-5.542-2.633-5.542-5.838v-0.039c0-3.207,2.299-5.803,5.506-5.803
		c3.206,0,5.541,2.633,5.541,5.842V85.16L438.945,85.16z M439.944,85.124c0.017-0.021,0.017-0.021,0-0.039
		c0-3.541-2.575-6.67-6.504-6.67c-3.932,0-6.539,3.166-6.539,6.709v0.035c0,3.541,2.572,6.67,6.503,6.67
		C437.333,91.829,439.944,88.663,439.944,85.124 M424.773,79.525v-0.887h-9.137v12.969h0.961v-5.873h7.339v-0.889h-7.339v-5.32
		H424.773L424.773,79.525z M406.979,91.607v-0.885h-8.358v-5.211h7.433v-0.889h-7.433v-5.098h8.265v-0.887h-9.226v12.969H406.979
		L406.979,91.607z M394.862,79.525v-0.887h-10.003v0.887h4.519v12.082h0.964V79.525H394.862L394.862,79.525z M382.161,86.105v-7.467
		h-0.961v7.578c0,3.133-1.686,4.729-4.318,4.729c-2.744,0-4.395-1.76-4.395-4.822v-7.484h-0.961v7.578
		c0,3.633,2.203,5.596,5.317,5.596C379.997,91.812,382.161,89.831,382.161,86.105 M368.833,79.525v-0.887h-10.007v0.887h4.522
		v12.082h0.962V79.525H368.833L368.833,79.525z M355.991,78.638h-0.961v12.967h0.961V78.638L355.991,78.638z M352.17,79.525v-0.887
		h-10.007v0.887h4.522v12.082h0.962V79.525H352.17L352.17,79.525z M339.998,88.255v-0.037c0-1.891-1.257-2.965-4.26-3.578
		c-3.079-0.629-3.782-1.465-3.782-2.836v-0.037c0-1.352,1.261-2.447,3.17-2.447c1.427,0,2.651,0.408,3.873,1.465l0.609-0.762
		c-1.312-1.055-2.555-1.57-4.446-1.57c-2.409,0-4.167,1.48-4.167,3.408v0.037c0,1.963,1.257,3.018,4.371,3.65
		c2.947,0.596,3.671,1.393,3.671,2.764v0.035c0,1.484-1.336,2.578-3.281,2.578c-1.908,0-3.226-0.613-4.652-1.928l-0.63,0.721
		c1.556,1.391,3.149,2.074,5.227,2.074C338.202,91.792,339.998,90.347,339.998,88.255 M327.382,91.607V78.638h-0.922v11.285
		l-8.954-11.285h-0.905v12.969h0.923V80.081l9.14,11.525H327.382L327.382,91.607z M312.531,78.638h-0.963v12.967h0.963V78.638
		L312.531,78.638z M302.987,91.607V90.72h-7.617V78.638h-0.964v12.969H302.987L302.987,91.607z M288.582,87.105h-6.838l3.428-7.506
		L288.582,87.105L288.582,87.105z M291.693,91.607l-6.039-13.061h-0.928l-6.041,13.061h1.002l1.646-3.633h7.655l1.651,3.633H291.693
		L291.693,91.607z M275.981,91.607V78.638h-0.923v11.285l-8.955-11.285H265.2v12.969h0.923V80.081l9.138,11.525H275.981
		L275.981,91.607z M260.837,85.16c0,3.207-2.299,5.803-5.505,5.803c-3.208,0-5.543-2.633-5.543-5.838v-0.039
		c0-3.207,2.298-5.803,5.505-5.803c3.208,0,5.543,2.633,5.543,5.842V85.16L260.837,85.16z M261.836,85.124
		c0.018-0.021,0.018-0.021,0-0.039c0-3.541-2.575-6.67-6.504-6.67c-3.931,0-6.542,3.166-6.542,6.709v0.035
		c0,3.541,2.575,6.67,6.504,6.67C259.224,91.829,261.836,88.663,261.836,85.124 M245.345,78.638h-0.961v12.967h0.961V78.638
		L245.345,78.638z M241.522,79.525v-0.887h-10.005v0.887h4.521v12.082h0.964V79.525H241.522L241.522,79.525z M228.435,87.105h-6.836
		l3.428-7.506L228.435,87.105L228.435,87.105z M231.549,91.607l-6.041-13.061h-0.927l-6.041,13.061h1l1.649-3.633h7.652l1.652,3.633
		H231.549L231.549,91.607z M215.837,91.607V78.638h-0.924v11.285l-8.955-11.285h-0.905v12.969h0.923V80.081l9.141,11.525H215.837
		L215.837,91.607z M200.706,82.4c0,1.871-1.612,2.965-3.781,2.965h-4.376v-5.84h4.431c2.355,0,3.727,1.096,3.727,2.836V82.4
		L200.706,82.4z M202.148,91.607l-4.279-5.539c2.189-0.297,3.798-1.539,3.798-3.707v-0.037c0-2.168-1.831-3.686-4.632-3.686h-5.447
		v12.969h0.961v-5.375h4.246l4.134,5.375H202.148L202.148,91.607z M188.706,91.607V90.72h-8.357v-5.209h7.432v-0.889h-7.432v-5.098
		h8.267v-0.887h-9.227v12.969H188.706L188.706,91.607z M176.589,79.525v-0.887h-10.003v0.887h4.52v12.082h0.962V79.525H176.589
		L176.589,79.525z M163.787,91.607V78.638h-0.922v11.285l-8.955-11.285h-0.904v12.969h0.924V80.081l9.138,11.525H163.787
		L163.787,91.607z M148.933,78.638h-0.963v12.967h0.963V78.638L148.933,78.638z"/>
	<path class="st12" d="M636.368,62.134h-0.026l-0.016-0.019c-0.321-0.428-1.042-1.281-4.113-4.576l-7.464-8.014
		c-0.316-0.34-0.809-0.893-1.333-1.477c-0.911-1.016-1.943-2.164-2.382-2.604h-0.005c-0.101,0.324-0.144,0.904-0.144,1.922v6.611
		c0,3.42,0.202,5.641,0.571,6.256c0.17,0.293,0.735,0.486,1.597,0.551l1.023,0.096l0.014,0.016c0.109,0.137,0.158,0.316,0.132,0.492
		c-0.023,0.146-0.097,0.269-0.208,0.342l-0.015,0.012l-0.018-0.002c-1.556-0.065-2.644-0.088-3.761-0.088
		c-1.379,0-2.24,0.031-3.344,0.088l-0.018,0.002l-0.015-0.012c-0.118-0.078-0.198-0.234-0.211-0.41
		c-0.015-0.172,0.038-0.334,0.14-0.428l0.013-0.014h0.018l0.87-0.094c0.782-0.094,1.23-0.281,1.374-0.578
		c0.416-1.01,0.413-4.342,0.41-5.941v-0.287V45.21c0-0.891-0.047-1.482-0.69-2.149c-0.481-0.453-1.334-0.639-1.964-0.711
		l-0.562-0.064l-0.015-0.012c-0.119-0.111-0.178-0.316-0.145-0.51c0.024-0.158,0.106-0.281,0.224-0.338l0.012-0.006h0.017
		c1.349,0.094,3.065,0.094,3.629,0.094c0.538,0,1.074-0.035,1.473-0.094l0.041-0.006l0.015,0.041
		c0.417,1.002,2.244,3.223,5.435,6.598l3.174,3.369c0.409,0.434,0.799,0.844,1.168,1.234c1.617,1.707,2.897,3.061,4.125,4.244h0.015
		c0.103-0.16,0.103-0.652,0.103-1.221v-6.496c0-3.422-0.225-5.643-0.633-6.252c-0.196-0.271-0.765-0.441-1.959-0.582l-0.561-0.062
		l-0.012-0.012c-0.152-0.119-0.19-0.348-0.161-0.516c0.028-0.166,0.117-0.289,0.239-0.336l0.01-0.004h0.009
		c1.336,0.057,2.49,0.094,3.797,0.094c1.403,0,2.245-0.031,3.31-0.094h0.016l0.015,0.01c0.126,0.076,0.206,0.213,0.224,0.381
		c0.021,0.178-0.036,0.358-0.148,0.463l-0.014,0.012l-0.469,0.064c-1.148,0.17-1.662,0.424-1.761,0.609
		c-0.493,0.986-0.481,4.25-0.478,5.818c0.003,0.152,0.003,0.289,0.003,0.406v7.254c0,3.732,0.052,4.945,0.095,5.303l0.002,0.012
		l-0.004,0.012C636.99,61.876,636.849,62.134,636.368,62.134L636.368,62.134z"/>
	<path class="st12" d="M506.128,62.134h-0.027l-0.017-0.019c-0.321-0.428-1.043-1.281-4.114-4.576l-7.464-8.014
		c-0.308-0.334-0.785-0.867-1.292-1.432c-0.928-1.031-1.975-2.203-2.422-2.648h-0.002c-0.129,0.41-0.146,1.197-0.146,1.922v6.611
		c0,3.42,0.203,5.643,0.572,6.256c0.167,0.293,0.735,0.486,1.597,0.551l1.023,0.096l0.014,0.016
		c0.111,0.141,0.159,0.318,0.131,0.492c-0.022,0.146-0.095,0.269-0.206,0.342l-0.015,0.012l-0.018-0.002
		c-1.556-0.065-2.646-0.088-3.762-0.088c-1.377,0-2.238,0.031-3.346,0.088l-0.018,0.002l-0.015-0.012
		c-0.118-0.078-0.196-0.231-0.21-0.406c-0.013-0.176,0.04-0.338,0.141-0.432l0.014-0.014h0.018l0.867-0.094
		c0.783-0.094,1.233-0.281,1.374-0.578c0.419-1.014,0.415-4.348,0.413-5.947l-0.002-0.281V45.21c0-0.891-0.047-1.482-0.691-2.149
		c-0.481-0.453-1.334-0.639-1.961-0.711l-0.562-0.064l-0.015-0.012c-0.117-0.111-0.176-0.316-0.147-0.51
		c0.026-0.158,0.105-0.281,0.226-0.338l0.012-0.006h0.014c1.349,0.094,3.066,0.094,3.631,0.094c0.539,0,1.075-0.035,1.474-0.094
		l0.041-0.006l0.015,0.041c0.422,1.018,2.266,3.256,5.48,6.648l0.01,0.012l3.12,3.307c0.398,0.422,0.776,0.82,1.137,1.201
		c1.629,1.723,2.919,3.086,4.153,4.277h0.016c0.102-0.16,0.102-0.652,0.102-1.221v-6.496c0-3.422-0.226-5.643-0.636-6.252
		c-0.193-0.271-0.759-0.441-1.954-0.582l-0.562-0.062l-0.013-0.012c-0.15-0.119-0.191-0.342-0.163-0.512
		c0.029-0.168,0.117-0.293,0.24-0.34l0.012-0.004h0.011c1.598,0.068,2.661,0.094,3.792,0.094c1.403,0,2.247-0.031,3.31-0.094h0.018
		l0.015,0.01c0.125,0.076,0.205,0.213,0.223,0.377c0.02,0.182-0.037,0.361-0.149,0.467l-0.013,0.012l-0.468,0.064
		c-1.153,0.17-1.664,0.424-1.761,0.609c-0.495,0.986-0.483,4.256-0.48,5.826l0.003,0.398v7.254c0,3.732,0.053,4.945,0.095,5.303
		l0.002,0.012l-0.004,0.012C506.749,61.876,506.609,62.134,506.128,62.134L506.128,62.134z"/>
	<path class="st12" d="M471.997,62.134c-2.634,0-4.67-0.564-6.047-1.682c-1.749-1.367-2.529-3.588-2.529-7.201v-7.162
		c0-3.104-0.052-3.621-1.881-3.768l-0.828-0.07c-0.1-0.062-0.152-0.209-0.141-0.391c0.01-0.17,0.078-0.369,0.209-0.434l0.012-0.006
		h0.014c1.567,0.062,2.668,0.094,3.987,0.094c1.333,0,2.419-0.031,3.955-0.094h0.012l0.013,0.006
		c0.133,0.064,0.199,0.264,0.209,0.434c0.01,0.182-0.043,0.328-0.141,0.391l-0.025,0.008l-0.771,0.062
		c-1.827,0.146-1.88,0.664-1.88,3.768v6.557c0,5.492,2.059,8.051,6.477,8.051c5.272,0,6.379-4.363,6.379-8.021v-3.49
		c0-2.393-0.105-5.422-0.603-6.254c-0.207-0.338-0.75-0.549-1.565-0.609l-0.826-0.064l-0.015-0.016
		c-0.102-0.111-0.146-0.281-0.123-0.457c0.021-0.154,0.096-0.287,0.199-0.352l0.015-0.012h0.017
		c1.235,0.064,2.435,0.094,3.663,0.094c1.376,0,2.249-0.031,3.375-0.094h0.017l0.015,0.01c0.111,0.066,0.185,0.182,0.208,0.324
		c0.026,0.17-0.026,0.367-0.132,0.486l-0.015,0.016l-0.792,0.064c-0.797,0.059-1.382,0.318-1.564,0.697
		c-0.447,0.99-0.447,4.488-0.447,6.166v3.432c0,3.359-0.741,5.744-2.268,7.289C476.845,61.279,474.476,62.134,471.997,62.134
		L471.997,62.134z"/>
	<path class="st12" d="M391.341,62.134c-4.126,0-7.53-1.168-9.848-3.381c-1.947-1.836-2.975-4.232-2.975-6.928
		c0-2.777,1.032-5.348,2.91-7.229c2.435-2.398,5.781-3.568,10.234-3.568c1.875,0,3.609,0.352,4.098,0.457l0.152,0.029
		c0.53,0.109,1.257,0.256,1.667,0.256c0.06,0,0.111-0.004,0.153-0.012l0.062-0.01v0.062c0,0.914,0.158,2.35,0.481,4.391l0.001,0.016
		l-0.004,0.012c-0.07,0.178-0.328,0.242-0.527,0.242c-0.182,0-0.342-0.049-0.428-0.131l-0.012-0.01l-0.003-0.014
		c-0.8-2.916-2.88-4.271-6.542-4.271c-2.873,0-5.221,0.916-6.788,2.645c-1.376,1.521-2.133,3.666-2.133,6.041
		c0,6.391,3.679,10.357,9.595,10.357c1.808,0,3.114-0.332,3.495-0.889c0.073-0.1,0.314-0.504,0.314-1.699v-1.215
		c0-2.547-0.096-2.682-2.043-2.889l-1.432-0.156c-0.166-0.078-0.217-0.281-0.214-0.445c0.006-0.199,0.093-0.359,0.216-0.41
		l0.012-0.006h0.012c0.873,0.059,2.591,0.092,4.595,0.092c1.239,0,2.323-0.029,3.405-0.092h0.017l0.012,0.006
		c0.117,0.064,0.196,0.203,0.212,0.373c0.02,0.193-0.045,0.375-0.171,0.475l-0.012,0.012l-0.527,0.061
		c-1.28,0.145-1.336,0.912-1.336,2.5v1.695c0,1.287,0.22,1.914,0.737,2.104l0.019,0.012c0.059,0.057,0.089,0.145,0.082,0.232
		c-0.009,0.088-0.053,0.166-0.123,0.217l-0.015,0.008h-0.018c-0.422,0-1.094,0.156-1.561,0.269
		C395.19,61.824,392.925,62.134,391.341,62.134L391.341,62.134z"/>
	<path class="st12" d="M371.847,62.134h-0.027l-0.015-0.019c-0.366-0.49-1.206-1.457-4.11-4.576l-7.465-8.014
		c-0.316-0.342-0.812-0.896-1.338-1.482c-0.909-1.014-1.938-2.162-2.377-2.598h-0.006c-0.126,0.404-0.144,1.195-0.144,1.922v6.611
		c0,3.422,0.202,5.643,0.571,6.256c0.17,0.293,0.738,0.486,1.6,0.551l1.02,0.096l0.015,0.016c0.111,0.137,0.158,0.316,0.134,0.488
		c-0.023,0.146-0.099,0.273-0.21,0.346l-0.015,0.012l-0.018-0.002c-1.556-0.065-2.646-0.088-3.76-0.088
		c-1.379,0-2.237,0.031-3.345,0.088l-0.018,0.002l-0.015-0.012c-0.119-0.078-0.199-0.231-0.211-0.406
		c-0.014-0.176,0.039-0.338,0.141-0.432l0.015-0.014h0.018l0.867-0.094c0.782-0.094,1.23-0.281,1.372-0.578
		c0.421-1.01,0.415-4.338,0.415-5.941V45.21c0-0.891-0.047-1.482-0.694-2.149c-0.483-0.453-1.333-0.639-1.961-0.711l-0.564-0.064
		l-0.014-0.012c-0.118-0.111-0.177-0.316-0.145-0.51c0.025-0.158,0.105-0.281,0.223-0.338l0.012-0.006h0.015
		c1.349,0.094,3.067,0.094,3.63,0.094c0.541,0,1.076-0.035,1.474-0.094l0.041-0.006l0.017,0.041c0.424,1.023,2.272,3.264,5.49,6.66
		l3.118,3.307c0.433,0.457,0.838,0.889,1.228,1.295c1.591,1.682,2.851,3.012,4.063,4.184h0.017c0.101-0.16,0.101-0.652,0.101-1.221
		v-6.496c0-3.422-0.224-5.643-0.633-6.252c-0.194-0.271-0.762-0.441-1.957-0.582l-0.562-0.062l-0.012-0.012
		c-0.149-0.119-0.188-0.346-0.161-0.512c0.026-0.168,0.117-0.293,0.24-0.34l0.009-0.004h0.012c1.6,0.068,2.663,0.094,3.796,0.094
		c1.401,0,2.245-0.031,3.309-0.094h0.016l0.014,0.01c0.126,0.076,0.208,0.213,0.226,0.381c0.021,0.178-0.038,0.358-0.152,0.463
		l-0.012,0.012l-0.468,0.064c-1.149,0.17-1.662,0.424-1.759,0.609c-0.495,0.986-0.483,4.25-0.48,5.82
		c0,0.15,0.002,0.287,0.002,0.404v7.254c0,3.732,0.053,4.945,0.097,5.303l0.001,0.016l-0.004,0.008
		C372.426,62.003,372.186,62.134,371.847,62.134L371.847,62.134z"/>
	<path class="st12" d="M338.366,62.134c-2.637,0-4.673-0.564-6.05-1.682c-1.749-1.367-2.529-3.592-2.529-7.201v-7.162
		c0-3.104-0.052-3.621-1.88-3.768l-0.827-0.07c-0.1-0.062-0.151-0.209-0.143-0.387c0.009-0.17,0.079-0.373,0.213-0.438l0.01-0.006
		h0.015c1.564,0.062,2.663,0.094,3.984,0.094c1.333,0,2.42-0.031,3.955-0.094h0.012l0.012,0.006
		c0.134,0.064,0.202,0.264,0.211,0.434c0.011,0.182-0.041,0.328-0.14,0.391l-0.024,0.008l-0.771,0.062
		c-1.831,0.146-1.883,0.664-1.883,3.768v6.557c0,5.492,2.059,8.051,6.477,8.051c5.273,0,6.381-4.363,6.381-8.021v-3.49
		c0-2.393-0.105-5.422-0.602-6.254c-0.209-0.338-0.752-0.549-1.568-0.609l-0.827-0.064l-0.015-0.016
		c-0.102-0.113-0.148-0.283-0.123-0.459c0.021-0.156,0.097-0.287,0.199-0.35l0.014-0.012h0.018c1.237,0.064,2.435,0.094,3.666,0.094
		c1.375,0,2.247-0.031,3.373-0.094h0.017l0.015,0.01c0.111,0.066,0.185,0.178,0.208,0.322c0.026,0.17-0.026,0.369-0.132,0.488
		l-0.015,0.016l-0.794,0.064c-0.782,0.059-1.38,0.324-1.561,0.697c-0.448,0.99-0.448,4.488-0.448,6.166v3.432
		c0,3.359-0.741,5.744-2.268,7.289C343.212,61.279,340.844,62.134,338.366,62.134L338.366,62.134z"/>
	<path class="st12" d="M256.265,62.134c-4.129,0-7.533-1.168-9.85-3.381c-1.946-1.84-2.975-4.232-2.975-6.928
		c0-2.777,1.033-5.344,2.909-7.229c2.436-2.398,5.783-3.568,10.235-3.568c1.873,0,3.61,0.352,4.097,0.457l0.155,0.033
		c0.53,0.105,1.258,0.252,1.667,0.252c0.059,0,0.111-0.004,0.152-0.012l0.062-0.01v0.062c0,0.91,0.161,2.387,0.48,4.391l0.004,0.016
		l-0.007,0.012c-0.07,0.182-0.328,0.242-0.526,0.242c-0.18,0-0.34-0.049-0.426-0.131l-0.012-0.01l-0.003-0.014
		c-0.803-2.916-2.883-4.271-6.545-4.271c-2.871,0-5.22,0.916-6.786,2.645c-1.376,1.521-2.133,3.666-2.133,6.041
		c0,6.391,3.678,10.357,9.596,10.357c1.808,0,3.114-0.332,3.494-0.889c0.074-0.1,0.312-0.5,0.312-1.699v-1.215
		c0-2.547-0.095-2.682-2.043-2.889l-1.433-0.156c-0.164-0.078-0.217-0.281-0.211-0.447c0.006-0.199,0.091-0.358,0.214-0.408
		l0.012-0.006h0.012c0.875,0.059,2.593,0.092,4.594,0.092c1.242,0,2.323-0.029,3.41-0.092h0.015l0.012,0.006
		c0.117,0.064,0.196,0.203,0.212,0.373c0.017,0.193-0.048,0.375-0.171,0.475l-0.012,0.012l-0.53,0.061
		c-1.28,0.145-1.338,0.912-1.338,2.5v1.695c0,1.287,0.222,1.914,0.74,2.104l0.018,0.012c0.059,0.057,0.091,0.145,0.082,0.232
		c-0.006,0.088-0.05,0.166-0.12,0.217l-0.015,0.008h-0.018c-0.325,0-0.822,0.086-1.563,0.269
		C260.111,61.824,257.846,62.134,256.265,62.134L256.265,62.134z"/>
	<path class="st12" d="M236.771,62.134h-0.027l-0.016-0.019c-0.322-0.432-1.045-1.283-4.112-4.576l-7.462-8.014
		c-0.316-0.342-0.812-0.893-1.339-1.482c-0.909-1.014-1.939-2.162-2.376-2.598h-0.006c-0.126,0.41-0.145,1.197-0.145,1.922v6.611
		c0,3.42,0.203,5.643,0.572,6.256c0.168,0.293,0.735,0.486,1.598,0.551l1.021,0.096l0.015,0.016
		c0.108,0.137,0.157,0.316,0.129,0.492c-0.02,0.146-0.094,0.269-0.206,0.342l-0.014,0.012l-0.018-0.002
		c-1.556-0.065-2.646-0.088-3.762-0.088c-1.377,0-2.238,0.031-3.342,0.088l-0.018,0.002l-0.016-0.012
		c-0.12-0.078-0.199-0.234-0.213-0.41c-0.013-0.172,0.04-0.334,0.143-0.428l0.012-0.014h0.02l0.867-0.094
		c0.78-0.094,1.232-0.281,1.372-0.578c0.419-1.014,0.416-4.344,0.413-5.943V45.21c0-0.891-0.047-1.482-0.693-2.149
		c-0.479-0.453-1.331-0.639-1.959-0.711l-0.566-0.064l-0.013-0.012c-0.118-0.111-0.177-0.316-0.146-0.51
		c0.026-0.158,0.106-0.281,0.224-0.338l0.012-0.006h0.017c1.348,0.094,3.064,0.094,3.63,0.094c0.539,0,1.075-0.035,1.473-0.094
		l0.039-0.006l0.018,0.041c0.419,1.006,2.248,3.229,5.441,6.609l3.169,3.357c0.411,0.438,0.803,0.85,1.175,1.242
		c1.614,1.705,2.892,3.053,4.115,4.236h0.016c0.103-0.16,0.103-0.652,0.103-1.221v-6.496c0-3.418-0.226-5.643-0.634-6.252
		c-0.193-0.271-0.761-0.441-1.956-0.582l-0.565-0.062l-0.012-0.012c-0.149-0.119-0.188-0.346-0.16-0.512
		c0.028-0.168,0.119-0.293,0.242-0.34l0.01-0.004h0.01c1.598,0.068,2.661,0.094,3.795,0.094c1.402,0,2.246-0.031,3.311-0.094h0.015
		l0.015,0.01c0.123,0.072,0.205,0.211,0.225,0.377c0.019,0.182-0.04,0.361-0.151,0.467l-0.013,0.012l-0.468,0.064
		c-1.148,0.17-1.664,0.424-1.761,0.609c-0.495,0.986-0.483,4.256-0.477,5.826l0.001,0.398v7.254c0,3.732,0.053,4.945,0.096,5.303
		l0.003,0.012l-0.003,0.012C237.394,61.876,237.25,62.134,236.771,62.134L236.771,62.134z"/>
	<path class="st12" d="M315.74,61.742l-0.012-0.006c-0.1-0.047-0.173-0.176-0.201-0.346c-0.024-0.164-0.006-0.377,0.123-0.498
		l0.012-0.012l0.017-0.002l0.612-0.094c1.916-0.297,1.916-0.557,1.916-3.742v-4.277c0-0.85,0-0.916-1.556-0.916h-9.198
		c-1.555,0-1.555,0.066-1.555,0.916v4.277c0,3.217,0.18,3.566,1.914,3.742l0.955,0.1c0.1,0.065,0.152,0.217,0.141,0.406
		c-0.012,0.18-0.08,0.385-0.211,0.445l-0.012,0.006l-0.014-0.002c-1.779-0.062-2.844-0.088-4.08-0.088
		c-0.925,0-1.734,0.025-2.518,0.053c-0.396,0.014-0.796,0.025-1.213,0.035l-0.012,0.002l-0.012-0.006
		c-0.1-0.047-0.176-0.176-0.202-0.348c-0.026-0.162-0.006-0.375,0.123-0.496l0.014-0.012l0.561-0.096
		c1.771-0.299,1.822-0.596,1.822-3.742V46.12c0-3.195-0.226-3.652-1.849-3.77l-0.861-0.068c-0.099-0.064-0.151-0.213-0.138-0.404
		c0.009-0.178,0.076-0.389,0.208-0.451l0.012-0.006h0.012c0.605,0.016,1.137,0.029,1.644,0.047c0.8,0.023,1.556,0.047,2.41,0.047
		c1.173,0,2.252-0.025,3.728-0.094h0.013l0.012,0.006c0.133,0.062,0.201,0.273,0.21,0.451c0.012,0.191-0.04,0.34-0.14,0.404
		l-0.023,0.006l-0.611,0.062c-1.811,0.176-1.881,0.592-1.881,3.77v3.49c0,0.885,0,0.916,1.555,0.916h9.198
		c1.556,0,1.556-0.031,1.556-0.916v-3.49c0-3.178-0.07-3.594-1.913-3.77l-0.636-0.068c-0.097-0.064-0.149-0.213-0.138-0.404
		c0.009-0.178,0.077-0.389,0.208-0.451l0.012-0.006h0.015c1.371,0.059,2.499,0.094,3.89,0.094c1.167,0,2.23-0.025,3.792-0.094h0.012
		l0.013,0.006c0.133,0.062,0.201,0.273,0.211,0.451c0.011,0.191-0.042,0.34-0.141,0.404l-0.024,0.006l-0.673,0.062
		c-1.812,0.176-1.882,0.592-1.882,3.77v10.922c0,3.18,0.061,3.537,1.884,3.742l0.794,0.1c0.099,0.065,0.151,0.217,0.14,0.406
		c-0.011,0.18-0.081,0.385-0.21,0.445l-0.013,0.006l-0.014-0.002c-1.477-0.057-2.59-0.088-3.889-0.088
		c-1.242,0-2.369,0.023-3.89,0.088L315.74,61.742L315.74,61.742z"/>
	<path class="st12" d="M182.69,61.742l-0.012-0.006c-0.101-0.047-0.176-0.176-0.202-0.348c-0.025-0.162-0.006-0.375,0.124-0.496
		l0.013-0.012l0.627-0.096c1.916-0.297,1.916-0.557,1.916-3.742v-4.277c0-0.85,0-0.916-1.555-0.916h-9.199
		c-1.555,0-1.555,0.066-1.555,0.916v4.277c0,3.217,0.179,3.566,1.912,3.742l0.957,0.1c0.1,0.065,0.152,0.217,0.14,0.41
		c-0.011,0.176-0.079,0.381-0.21,0.441l-0.012,0.006l-0.012-0.002c-1.782-0.062-2.848-0.088-4.084-0.088
		c-0.923,0-1.733,0.025-2.518,0.053c-0.398,0.014-0.797,0.025-1.212,0.035l-0.012,0.002l-0.013-0.006
		c-0.099-0.047-0.174-0.176-0.201-0.346c-0.025-0.164-0.006-0.377,0.123-0.498l0.012-0.012l0.564-0.096
		c1.771-0.299,1.819-0.596,1.819-3.742V46.12c0-3.195-0.224-3.652-1.848-3.77l-0.86-0.068c-0.1-0.064-0.152-0.213-0.141-0.404
		c0.01-0.178,0.078-0.389,0.211-0.451l0.01-0.006h0.014c0.602,0.016,1.134,0.029,1.64,0.047c0.801,0.023,1.558,0.047,2.411,0.047
		c1.174,0,2.254-0.025,3.73-0.094h0.013l0.012,0.006c0.131,0.062,0.2,0.273,0.21,0.451c0.012,0.191-0.041,0.34-0.141,0.404
		l-0.022,0.006l-0.612,0.062c-1.811,0.176-1.881,0.592-1.881,3.77v3.49c0,0.885,0,0.916,1.555,0.916h9.199
		c1.555,0,1.555-0.031,1.555-0.916v-3.49c0-3.178-0.07-3.594-1.913-3.77l-0.636-0.068c-0.099-0.064-0.15-0.213-0.141-0.404
		c0.011-0.178,0.08-0.389,0.212-0.451l0.012-0.006h0.015c1.37,0.059,2.498,0.094,3.887,0.094c1.167,0,2.23-0.025,3.795-0.094h0.013
		l0.012,0.006c0.13,0.062,0.2,0.273,0.21,0.449c0.011,0.193-0.04,0.342-0.14,0.406l-0.022,0.006l-0.676,0.062
		c-1.814,0.176-1.883,0.592-1.883,3.77v10.922c0,3.18,0.061,3.537,1.884,3.742l0.794,0.1c0.101,0.065,0.152,0.217,0.141,0.406
		c-0.01,0.18-0.079,0.385-0.212,0.445l-0.01,0.006l-0.015-0.002c-1.479-0.057-2.591-0.088-3.891-0.088
		c-1.24,0-2.368,0.023-3.887,0.088L182.69,61.742L182.69,61.742z"/>
	<path class="st12" d="M587.84,61.742l-0.013-0.002c-1.581-0.057-2.683-0.088-3.988-0.088c-1.36,0-2.474,0.031-4.051,0.088
		l-0.012,0.002l-0.012-0.006c-0.102-0.047-0.176-0.176-0.204-0.348c-0.024-0.162-0.003-0.375,0.126-0.496l0.012-0.012l0.823-0.096
		c1.852-0.205,1.913-0.568,1.913-3.801V46.183c0-3.264-0.07-3.686-1.912-3.832l-0.827-0.068c-0.1-0.064-0.152-0.213-0.141-0.404
		c0.009-0.178,0.076-0.389,0.21-0.451l0.012-0.006h0.012c1.565,0.062,2.674,0.094,4.051,0.094c1.322,0,2.422-0.031,3.988-0.094
		h0.013l0.012,0.006c0.13,0.062,0.199,0.273,0.208,0.451c0.012,0.191-0.039,0.34-0.139,0.404l-0.023,0.006l-0.805,0.062
		c-1.843,0.146-1.913,0.568-1.913,3.832v10.801c0,3.232,0.062,3.596,1.915,3.801l0.826,0.1c0.1,0.065,0.15,0.217,0.139,0.406
		c-0.009,0.18-0.079,0.385-0.209,0.445L587.84,61.742L587.84,61.742z"/>
	<path class="st12" d="M570.277,61.742l-0.012-0.002c-1.957-0.062-2.977-0.088-4.213-0.088c-1.295,0-2.423,0.029-4.469,0.088
		l-0.014,0.002l-0.012-0.006c-0.129-0.061-0.193-0.248-0.199-0.406c-0.009-0.203,0.064-0.369,0.196-0.445l0.021-0.006l1.158-0.094
		c1.763-0.145,1.944-0.496,1.944-3.742V43.482c0-0.918,0-0.918-0.909-0.918h-1.771c-1.515,0-3.164,0.088-3.918,0.744
		c-0.778,0.672-1.1,1.354-1.436,2.078l-0.008,0.012l-0.012,0.008c-0.082,0.059-0.188,0.092-0.305,0.092
		c-0.252,0-0.51-0.141-0.606-0.326l-0.011-0.02l0.008-0.021c0.514-1.367,0.992-3.295,1.216-4.512l0.006-0.025l0.021-0.012
		c0.073-0.045,0.246-0.064,0.373-0.064c0.104,0,0.242,0.012,0.304,0.072l0.012,0.012l0.005,0.018
		c0.168,0.854,1.035,0.896,2.438,0.896h13.269c1.714,0,1.992-0.049,2.467-0.822l0.009-0.018l0.017-0.006
		c0.057-0.021,0.136-0.033,0.224-0.033c0.157,0,0.36,0.039,0.419,0.15l0.012,0.018l-0.006,0.02
		c-0.354,1.254-0.576,3.689-0.482,4.594l0.004,0.018l-0.008,0.012c-0.086,0.162-0.31,0.221-0.492,0.221
		c-0.185,0-0.352-0.059-0.432-0.147l-0.014-0.012v-0.018c-0.067-0.539-0.279-1.832-0.781-2.178c-0.722-0.506-1.934-0.75-3.701-0.75
		h-2.282c-0.44,0-0.674,0.004-0.778,0.105c-0.104,0.105-0.104,0.344-0.104,0.773v13.6c0,3.182,0.07,3.596,1.884,3.742l1.052,0.1
		c0.1,0.065,0.152,0.217,0.141,0.41c-0.012,0.176-0.08,0.381-0.211,0.441L570.277,61.742L570.277,61.742z"/>
	<path class="st12" d="M602.495,62.134c-7.553,0-11.502-5.199-11.502-10.338c0-2.965,1.155-5.689,3.255-7.67
		c2.115-1.996,5.045-3.098,8.247-3.098c3.475,0,6.381,1.113,8.408,3.221c1.811,1.881,2.81,4.455,2.81,7.242
		c0,2.955-1.163,5.666-3.269,7.635C608.363,61.066,605.54,62.134,602.495,62.134L602.495,62.134z M601.95,42.076
		c-3.521,0-7.635,2.293-7.635,8.75c0,2.514,0.708,4.996,1.939,6.812c1.535,2.256,3.838,3.451,6.661,3.451
		c2.011,0,3.85-0.748,5.172-2.098c1.506-1.539,2.301-3.807,2.301-6.557C610.388,47.656,608.178,42.076,601.95,42.076L601.95,42.076z
		"/>
	<path class="st12" d="M446.653,62.134c-7.554,0-11.507-5.199-11.507-10.338c0-2.965,1.156-5.689,3.258-7.67
		c2.117-1.996,5.044-3.098,8.249-3.098c3.472,0,6.38,1.113,8.405,3.221c1.811,1.881,2.81,4.455,2.81,7.242
		c0,2.955-1.161,5.666-3.27,7.635C452.518,61.066,449.697,62.134,446.653,62.134L446.653,62.134z M446.105,42.076
		c-3.522,0-7.633,2.293-7.633,8.75c0,2.514,0.707,4.996,1.939,6.812c1.533,2.256,3.836,3.451,6.657,3.451
		c2.015,0,3.85-0.748,5.174-2.098c1.506-1.539,2.302-3.807,2.302-6.557C454.544,47.656,452.335,42.076,446.105,42.076
		L446.105,42.076z"/>
	<path class="st12" d="M522.146,61.894c-1.186,0-2.351-0.078-3.376-0.148c-0.745-0.051-1.392-0.094-1.866-0.094
		c-1.438,0-2.648,0.035-4.019,0.088l-0.015,0.002l-0.012-0.006c-0.1-0.047-0.176-0.176-0.2-0.348
		c-0.025-0.162-0.005-0.375,0.124-0.496l0.012-0.012l0.018-0.002l0.741-0.094c1.831-0.238,1.884-0.539,1.884-3.742V45.515
		c0-2.154-0.173-2.719-1.466-2.893l-0.729-0.096c-0.152-0.088-0.243-0.281-0.227-0.484c0.014-0.176,0.112-0.316,0.265-0.375
		l0.015-0.002c3.012-0.164,5.578-0.244,8.08-0.244c3.173,0,5.229,0.268,7.093,0.918c2.12,0.723,3.776,1.918,4.922,3.551
		c1.077,1.531,1.646,3.418,1.646,5.449c0,3.932-2.063,7.244-5.66,9.09C526.994,61.64,524.128,61.894,522.146,61.894L522.146,61.894z
		 M521.629,42.47c-2.032,0-2.95,0.274-3.152,0.416c-0.249,0.176-0.299,1.031-0.299,2.262v11.197c0,1.615,0.097,2.565,0.633,3.279
		c0.655,0.867,1.787,1.221,3.913,1.221c5.795,0,8.984-3.353,8.984-9.445c0-1.256-0.246-3.674-1.894-5.707
		C528.086,43.554,525.332,42.47,521.629,42.47L521.629,42.47z"/>
	<path class="st12" d="M557.319,61.742l-0.021-0.002c-1.415-0.065-2.54-0.088-3.889-0.088c-1.224,0-2.255,0.037-3.084,0.066
		c-0.217,0.01-0.42,0.016-0.612,0.022l-0.012,0.002l-0.012-0.006c-0.138-0.064-0.229-0.223-0.246-0.412
		c-0.012-0.191,0.053-0.358,0.173-0.438l0.026-0.008l0.933-0.094c0.685-0.062,1.078-0.24,1.078-0.492
		c0-0.293-0.124-0.768-0.417-1.592l-1.415-4.125c-0.211-0.633-0.307-0.723-1.269-0.723h-4.854c-0.807,0-0.961,0.09-1.172,0.691
		l-1.127,3.184c-0.47,1.328-0.707,2.168-0.707,2.502c0,0.332,0.132,0.496,0.885,0.555l1.075,0.094l0.012,0.008
		c0.128,0.086,0.202,0.273,0.182,0.467c-0.018,0.182-0.112,0.324-0.255,0.383l-0.012,0.006l-0.012-0.002
		c-0.618-0.041-1.303-0.053-2.253-0.07c-0.333-0.006-0.694-0.012-1.091-0.018c-0.805,0-1.66,0.035-2.416,0.064
		c-0.237,0.008-0.46,0.018-0.668,0.024l-0.015,0.002l-0.015-0.008c-0.114-0.07-0.195-0.25-0.205-0.449
		c-0.01-0.178,0.038-0.322,0.135-0.395l0.012-0.012h0.018l1.061-0.094c0.906-0.07,1.506-0.533,1.887-1.453
		c0.176-0.422,0.379-0.896,0.615-1.447c0.537-1.246,1.271-2.947,2.213-5.318l3.283-8.193c0.459-1.119,0.635-1.662,0.542-2.125
		l-0.009-0.049l0.049-0.012c0.736-0.205,1.267-0.719,1.646-1.141l0.016-0.018h0.023c0.278,0,0.472,0.115,0.53,0.314
		c0.368,1.162,0.808,2.375,1.231,3.551l0.187,0.512l4.406,12.199c0.914,2.555,1.315,3.029,2.689,3.18l0.892,0.102
		c0.104,0.07,0.166,0.205,0.169,0.379c0.006,0.199-0.065,0.389-0.167,0.465L557.319,61.742L557.319,61.742z M546.333,44.837
		c-0.109,0.191-0.408,0.873-0.754,1.758l-2.024,5.279c-0.108,0.287-0.173,0.481-0.117,0.562c0.064,0.088,0.322,0.094,0.741,0.094
		h3.958c0.422,0,0.686-0.023,0.769-0.143c0.081-0.115,0.022-0.344-0.113-0.727l-1.736-4.945c-0.237-0.668-0.529-1.494-0.721-1.879
		H546.333L546.333,44.837z"/>
	<path class="st12" d="M214.112,61.742l-0.019-0.002c-1.417-0.065-2.545-0.088-3.891-0.088c-1.225,0-2.258,0.037-3.084,0.066
		c-0.217,0.01-0.422,0.016-0.612,0.022l-0.015,0.002l-0.01-0.006c-0.137-0.064-0.23-0.223-0.245-0.412
		c-0.013-0.188,0.053-0.358,0.173-0.438l0.023-0.008l0.935-0.094c0.686-0.062,1.078-0.24,1.078-0.492
		c0-0.293-0.126-0.768-0.417-1.592l-1.414-4.125c-0.214-0.633-0.308-0.723-1.27-0.723h-4.856c-0.807,0-0.96,0.09-1.173,0.691
		l-1.125,3.184c-0.468,1.324-0.704,2.166-0.704,2.502c0,0.332,0.132,0.496,0.885,0.555l1.073,0.094l0.013,0.008
		c0.128,0.086,0.2,0.273,0.182,0.467c-0.019,0.182-0.114,0.324-0.256,0.383l-0.012,0.006l-0.013-0.002
		c-0.615-0.041-1.301-0.053-2.25-0.07c-0.334-0.006-0.695-0.012-1.092-0.018c-0.807,0-1.663,0.035-2.418,0.064
		c-0.236,0.008-0.459,0.018-0.668,0.024l-0.018,0.002l-0.013-0.008c-0.112-0.07-0.193-0.246-0.204-0.449
		c-0.009-0.178,0.041-0.322,0.135-0.395l0.014-0.012h0.016l1.062-0.094c0.907-0.07,1.506-0.533,1.886-1.453
		c0.176-0.428,0.382-0.906,0.622-1.459c0.536-1.242,1.268-2.945,2.206-5.307l3.283-8.193c0.45-1.094,0.635-1.658,0.544-2.125
		l-0.011-0.049l0.049-0.012c0.735-0.205,1.268-0.719,1.648-1.141l0.014-0.018h0.025c0.278,0,0.472,0.115,0.531,0.314
		c0.368,1.168,0.809,2.387,1.236,3.568l4.586,12.693c0.914,2.555,1.314,3.029,2.689,3.18l0.892,0.102
		c0.105,0.07,0.165,0.203,0.17,0.375c0.006,0.199-0.063,0.392-0.167,0.469L214.112,61.742L214.112,61.742z M203.125,44.837
		c-0.112,0.199-0.431,0.924-0.756,1.758l-2.024,5.279c-0.105,0.287-0.17,0.481-0.115,0.562c0.064,0.088,0.323,0.094,0.74,0.094
		h3.957c0.424,0,0.686-0.023,0.771-0.143c0.081-0.115,0.022-0.344-0.112-0.727l-1.746-4.975
		C203.593,45.992,203.313,45.206,203.125,44.837L203.125,44.837L203.125,44.837z"/>
	<path class="st12" d="M146.502,62.824c0.843,0.457,3.159,1.502,6.737,1.502c2.736,0,5.057-0.723,6.704-2.088
		c1.628-1.348,2.487-3.229,2.487-5.438c0-3.139-1.766-5.695-5.398-7.816l-3.474-2.049c-1.39-0.814-3.718-2.555-3.718-5.082
		c0-1.383,0.509-4.6,5.221-4.6c4.084,0,5.328,2.48,5.952,4.654c0.067,0.068,0.193,0.106,0.353,0.106
		c0.257,0,0.528-0.096,0.632-0.219c-0.003-1.758-0.404-3.984-0.768-4.928c-0.344-0.006-0.928-0.082-1.496-0.246
		c-1.008-0.258-2.595-0.531-4.023-0.531c-2.672,0-4.923,0.709-6.511,2.051c-1.478,1.248-2.292,3.004-2.292,4.939
		c0,3.387,2.536,5.676,4.663,7l4.125,2.539c3.151,1.914,3.585,3.908,3.585,5.781c0,2.369-1.695,4.76-5.48,4.76
		c-4.626,0-6.641-3.33-7.518-6.129c-0.057-0.076-0.178-0.117-0.337-0.117c-0.238,0-0.485,0.098-0.601,0.232
		C145.441,59.156,146.009,61.951,146.502,62.824L146.502,62.824z"/>
	<path class="st12" d="M280.421,62.824c0.844,0.457,3.159,1.502,6.734,1.502c2.74,0,5.059-0.723,6.708-2.088
		c1.626-1.348,2.485-3.229,2.485-5.438c0-3.139-1.765-5.695-5.397-7.816l-3.475-2.049c-1.389-0.814-3.718-2.555-3.718-5.082
		c0-1.383,0.51-4.6,5.221-4.6c4.084,0,5.329,2.48,5.953,4.654c0.067,0.068,0.193,0.106,0.354,0.106c0.256,0,0.528-0.096,0.631-0.219
		c-0.003-1.758-0.402-3.984-0.766-4.928c-0.345-0.006-0.93-0.082-1.498-0.246c-1.008-0.258-2.594-0.531-4.023-0.531
		c-2.67,0-4.922,0.709-6.51,2.051c-1.479,1.248-2.293,3.004-2.293,4.939c0,3.387,2.536,5.676,4.663,7l4.125,2.539
		c3.151,1.914,3.586,3.908,3.586,5.781c0,2.369-1.696,4.76-5.482,4.76c-4.626,0-6.641-3.33-7.516-6.129
		c-0.058-0.076-0.18-0.117-0.339-0.117c-0.237,0-0.486,0.098-0.599,0.232C279.359,59.156,279.927,61.951,280.421,62.824
		L280.421,62.824z"/>
	<path class="st12" d="M418.188,63.663c1.711,0,3.138,0.039,5.763,0.121c0.103-0.059,0.185-0.258,0.201-0.486
		c0.012-0.199-0.034-0.363-0.121-0.428l-1.463-0.123c-2.622-0.211-2.698-0.924-2.698-5.174V51.88c0-1.115,0.169-1.16,1.487-1.16
		h2.951c1.553,0,2.717,0.035,3.359,0.209c0.922,0.271,1.237,0.957,1.425,1.59l0.431,1.582c0.132,0.1,0.346,0.164,0.565,0.164
		c0.211,0,0.386-0.059,0.463-0.152c0-0.412-0.034-0.934-0.073-1.535c-0.047-0.746-0.1-1.596-0.1-2.42c0-0.84,0.053-1.723,0.1-2.498
		c0.039-0.637,0.073-1.184,0.073-1.621c-0.077-0.088-0.269-0.146-0.495-0.146c-0.232,0-0.437,0.062-0.531,0.156l-0.389,1.623
		c-0.27,1.107-0.633,1.307-1.119,1.473c-0.51,0.162-1.828,0.25-3.709,0.25h-2.951c-1.317,0-1.487,0-1.487-1.16v-8.641
		c0-1.564,0-1.693,1.357-1.693h2.648c1.822,0,3.264,0,4.227,0.246c2.252,0.557,2.742,2.168,3.074,3.914
		c0.096,0.07,0.232,0.109,0.387,0.109c0.237,0,0.475-0.092,0.551-0.215c-0.082-1.484-0.126-3.375-0.129-5.328
		c-0.674,0.111-3.059,0.111-5.807,0.111h-7.989c-1.635,0-3.093-0.035-5.024-0.123c-0.105,0.059-0.188,0.264-0.201,0.492
		c-0.012,0.201,0.034,0.363,0.122,0.428l0.683,0.078c2.552,0.293,2.65,0.859,2.65,5.215v14.746c0,4.318-0.099,4.881-2.65,5.174
		l-1.069,0.123c-0.107,0.107-0.152,0.324-0.116,0.547c0.028,0.176,0.102,0.316,0.192,0.367
		C414.719,63.708,416.232,63.663,418.188,63.663L418.188,63.663z"/>
</g>
</svg>
