<?xml version="1.0" encoding="utf-8"?>
<!-- Generator: Adobe Illustrator 17.0.0, SVG Export Plug-In . SVG Version: 6.00 Build 0)  -->
<!DOCTYPE svg PUBLIC "-//W3C//DTD SVG 1.1//EN" "http://www.w3.org/Graphics/SVG/1.1/DTD/svg11.dtd">
<svg version="1.1" id="Livello_1" xmlns="http://www.w3.org/2000/svg" xmlns:xlink="http://www.w3.org/1999/xlink" x="0px" y="0px"
	 width="30px" height="44.286px" viewBox="0 0 30 44.286" enable-background="new 0 0 30 44.286" xml:space="preserve">
<circle fill="#e6342c" cx="15.305" cy="15.381" r="9.575"/>
<path fill="#e6342c" d="M15,0C6.716,0,0,6.716,0,15c0,0.178,0.005,0.359,0.013,0.541c0.056,1.576,0.353,3.089,0.859,4.505
	C4.072,30.564,15,44.286,15,44.286s10.926-13.721,14.127-24.24c0.506-1.416,0.803-2.931,0.859-4.506
	C29.996,15.358,30,15.177,30,14.999C30,6.716,23.284,0,15,0z M15,22.346c-4.057,0-7.347-3.289-7.347-7.347
	c0-4.057,3.289-7.346,7.347-7.346c4.058,0,7.347,3.289,7.347,7.346C22.347,19.057,19.058,22.346,15,22.346z"/>
</svg>
